<svg width="22" height="22" viewBox="0 0 22 22" fill="none" xmlns="http://www.w3.org/2000/svg">
<path d="M5.5 1.83333L2.75 5.49999V18.3333C2.75 18.8196 2.94315 19.2859 3.28697 19.6297C3.63079 19.9735 4.0971 20.1667 4.58333 20.1667H17.4167C17.9029 20.1667 18.3692 19.9735 18.713 19.6297C19.0568 19.2859 19.25 18.8196 19.25 18.3333V5.49999L16.5 1.83333H5.5Z" stroke="white" stroke-width="1.5" stroke-linecap="round" stroke-linejoin="round"/>
<path d="M2.75 5.5H19.25" stroke="white" stroke-width="1.5" stroke-linecap="round" stroke-linejoin="round"/>
<path d="M14.6666 9.16667C14.6666 10.1391 14.2803 11.0718 13.5926 11.7594C12.905 12.447 11.9724 12.8333 10.9999 12.8333C10.0275 12.8333 9.09483 12.447 8.40719 11.7594C7.71956 11.0718 7.33325 10.1391 7.33325 9.16667" stroke="white" stroke-width="1.5" stroke-linecap="round" stroke-linejoin="round"/>
</svg>
