<svg width="66" height="24" viewBox="0 0 66 24" fill="none" xmlns="http://www.w3.org/2000/svg">
<path fill-rule="evenodd" clip-rule="evenodd" d="M8.40338 1.06411C4.13492 6.16244 0.0435921 12.4815 0.0003891 17.2022C-0.0168921 18.9807 0.540427 20.5308 1.87972 21.7077C3.80658 23.3984 5.92785 23.9956 8.04048 24C11.1295 24.0044 14.1926 22.7397 16.5947 21.7604C20.6385 20.1181 65.3234 0.392239 65.3234 0.392239C65.7554 0.172673 65.6733 -0.0995891 65.1333 0.0365419C64.9173 0.0936291 16.4867 13.4301 16.4867 13.4301C15.5535 13.6979 14.5987 13.8341 13.6698 13.8385C9.94573 13.8604 6.63638 11.7614 6.6623 7.33492C6.67526 5.60913 7.1937 3.52325 8.40338 1.06411Z" fill="#555770"/>
</svg>
